<?xml version="1.0" encoding="UTF-8" standalone="no"?>
<!-- Created with Inkscape (http://www.inkscape.org/) -->

<svg
   version="1.1"
   id="svg2"
   width="718.66669"
   height="138.66667"
   viewBox="0 0 718.66669 138.66667"
   sodipodi:docname="SECoP_rightside.svg"
   inkscape:version="1.2.2 (b0a8486541, 2022-12-01)"
   xmlns:inkscape="http://www.inkscape.org/namespaces/inkscape"
   xmlns:sodipodi="http://sodipodi.sourceforge.net/DTD/sodipodi-0.dtd"
   xmlns="http://www.w3.org/2000/svg"
   xmlns:svg="http://www.w3.org/2000/svg">
  <defs
     id="defs6" />
  <sodipodi:namedview
     id="namedview4"
     pagecolor="#505050"
     bordercolor="#eeeeee"
     borderopacity="1"
     inkscape:showpageshadow="0"
     inkscape:pageopacity="0"
     inkscape:pagecheckerboard="0"
     inkscape:deskcolor="#505050"
     showgrid="false"
     inkscape:zoom="1.701923"
     inkscape:cx="359.59323"
     inkscape:cy="69.333336"
     inkscape:window-width="1920"
     inkscape:window-height="1171"
     inkscape:window-x="1920"
     inkscape:window-y="0"
     inkscape:window-maximized="1"
     inkscape:current-layer="g10" />
  <g
     id="g8"
     inkscape:groupmode="layer"
     inkscape:label="ink_ext_XXXXXX"
     transform="matrix(1.3333333,0,0,-1.3333333,0,138.66667)">
    <g
       id="g10"
       transform="scale(0.1)">
      <path
         id="path12"
         style="fill:#231f20;fill-opacity:1;fill-rule:evenodd;stroke:none"
         d="M 2895.1759 736.70414 L 2895.1759 1.8652594 L 3060.835 1.8652594 L 3060.835 254.97562 L 3139.7169 254.97562 C 3228.5768 254.97562 3299.4227 277.88922 3352.6026 323.36917 C 3405.7726 369.02213 3432.3634 428.67835 3432.3634 502.49027 C 3432.3634 658.69412 3339.8149 736.70414 3154.585 736.70414 L 2895.1759 736.70414 z M 3060.835 609.71684 L 3125.9034 609.71684 C 3214.0633 609.71684 3258.1348 571.93015 3258.1348 496.36722 C 3258.1348 419.2273 3214.0633 380.55668 3125.9034 380.55668 L 3060.835 380.55668 L 3060.835 609.71684 z " />
      <path
         id="path14"
         style="fill:#231f20;fill-opacity:1;fill-rule:evenodd;stroke:none"
         d="M 2502.8467 552.17777 C 2414.5068 552.17777 2344.2061 527.69281 2292.2462 478.71586 C 2240.2962 429.73491 2214.4044 361.6887 2214.4044 274.92679 C 2214.4044 190.96587 2239.4137 124.32197 2289.4337 75.341824 C 2339.4636 26.369273 2408.2091 1.8799079 2495.669 1.8799079 C 2584.5389 1.8799079 2654.5012 27.057682 2705.5811 77.612332 C 2756.6611 128.16308 2782.1925 197.09034 2782.1925 284.19925 C 2782.1925 364.83217 2757.3616 429.73491 2707.8516 478.71586 C 2658.3517 527.69281 2589.9567 552.17777 2502.8467 552.17777 z M 2499.8731 428.14945 C 2578.063 428.14945 2617.2364 379.18274 2617.2364 281.04984 C 2617.2364 177.67494 2578.4031 125.89358 2500.9131 125.89358 C 2419.5732 125.89358 2378.8331 176.26862 2378.8331 277.02152 C 2378.8331 325.12747 2389.5041 362.38977 2410.6641 388.80375 C 2431.8341 415.04172 2461.5731 428.14945 2499.8731 428.14945 z " />
      <path
         d="m 2125.53,39.8516 c -51.7,-25.0039 -119.44,-37.50394 -202.9,-37.50394 -108.81,0 -194.46,31.92964 -256.8,95.96094 -62.51,64.0314 -93.6,149.3474 -93.6,255.9494 0,113.531 34.98,205.609 105.09,276.226 70.11,70.621 161.17,105.93 273.01,105.93 69.27,0 127.73,-8.785 175.2,-26.355 V 556.148 c -47.47,28.383 -101.53,42.571 -162.35,42.571 -66.57,0 -120.47,-20.946 -161.35,-62.844 -40.88,-41.898 -61.33,-98.664 -61.33,-170.297 0,-68.59 19.27,-123.328 57.95,-164.047 38.52,-40.715 90.56,-61.156 155.94,-61.156 62.34,0 119.44,15.207 171.14,45.613 V 39.8516"
         style="fill:#231f20;fill-opacity:1;fill-rule:evenodd;stroke:none"
         id="path20" />
      <path
         d="m 1480.95,1.86328 h -440.8 V 736.707 h 423.83 V 602.016 H 1205.8 V 438.465 h 240.34 V 304.301 H 1205.8 V 136.203 h 275.15 V 1.86328"
         style="fill:#231f20;fill-opacity:1;fill-rule:evenodd;stroke:none"
         id="path22" />
      <path
         d="m 12.7383,5.29688 c 183.3277,0 365.9847,0.03515 549.3047,0.03515 149.477,0 212.969,24.12497 277.844,87.04297 43.332,42.023 93.406,114.438 92.922,222.23 -1.196,262.95 -240.172,233.368 -235.981,383.719 0.945,34.016 22.074,66.571 51.938,83.164 28.363,15.75 56.898,23.496 103.586,23.617 190.908,0.469 -0.633,0 198.018,0.309 l 2597.52,-0.008 131.01,225.454 H 944.461 C 817.258,1027.78 681.699,1037.8 579.184,943.199 497.105,867.461 468.875,780.395 468.543,701.656 c -0.348,-83.5 25.527,-140.136 55.504,-183.324 71.18,-102.57 187.203,-122.781 186.226,-200.07 -1.054,-82.977 -80.687,-92.813 -211.992,-92.164 -118.863,0.586 -238.09,-0.399 -356.98,0.031 L 12.7383,5.29688"
         style="fill:#231f20;fill-opacity:1;fill-rule:evenodd;stroke:none"
         id="path24" />
      <path
         d="m 12.7383,5.29688 c 183.3277,0 365.9847,0.03515 549.3047,0.03515 149.477,0 212.969,24.12497 277.844,87.04297 43.332,42.023 93.406,114.438 92.922,222.23 -1.196,262.95 -240.172,233.368 -235.981,383.719 0.945,34.016 22.074,66.571 51.938,83.164 28.363,15.75 56.898,23.496 103.586,23.617 190.908,0.469 -0.633,0 198.018,0.309 l 2597.52,-0.008 131.01,225.454 H 944.461 C 817.258,1027.78 681.699,1037.8 579.184,943.199 497.105,867.461 468.875,780.395 468.543,701.656 c -0.348,-83.5 25.527,-140.136 55.504,-183.324 71.18,-102.57 187.203,-122.781 186.226,-200.07 -1.054,-82.977 -80.687,-92.813 -211.992,-92.164 -118.863,0.586 -238.09,-0.399 -356.98,0.031 z"
         style="fill:none;stroke:#231f20;stroke-width:4.9975;stroke-linecap:butt;stroke-linejoin:miter;stroke-miterlimit:22.9256;stroke-dasharray:none;stroke-opacity:1"
         id="path26" />
      <path
         d="m 3890.08,873.652 v 33.828 c 6.13,-5.156 12.8,-9.015 19.97,-11.574 7.18,-2.562 14.43,-3.859 21.75,-3.859 4.33,0 8.08,0.398 11.25,1.152 3.22,0.793 5.88,1.84 8.04,3.246 2.17,1.371 3.76,2.996 4.8,4.832 1.08,1.875 1.59,3.899 1.59,6.098 0,2.957 -0.83,5.59 -2.52,7.895 -1.7,2.343 -4.01,4.507 -6.93,6.457 -2.92,1.984 -6.38,3.894 -10.42,5.695 -4,1.84 -8.33,3.719 -12.98,5.629 -11.83,4.902 -20.67,10.926 -26.47,18.066 -5.81,7.106 -8.7,15.688 -8.7,25.75 0,7.899 1.56,14.68 4.73,20.34 3.17,5.693 7.5,10.343 12.95,14.023 5.48,3.65 11.79,6.35 18.97,8.08 7.17,1.73 14.78,2.6 22.82,2.6 7.9,0 14.89,-0.5 20.99,-1.44 6.06,-0.94 11.69,-2.42 16.84,-4.4 v -31.593 c -2.56,1.765 -5.3,3.316 -8.29,4.652 -2.99,1.332 -6.09,2.449 -9.27,3.351 -3.14,0.868 -6.31,1.516 -9.45,1.95 -3.14,0.394 -6.09,0.613 -8.91,0.613 -3.89,0 -7.39,-0.363 -10.56,-1.082 -3.18,-0.758 -5.84,-1.805 -8.05,-3.137 -2.16,-1.336 -3.85,-2.922 -5.08,-4.797 -1.19,-1.875 -1.77,-3.964 -1.77,-6.277 0,-2.559 0.65,-4.828 1.99,-6.812 1.33,-2.024 3.24,-3.934 5.73,-5.735 2.45,-1.765 5.45,-3.535 8.98,-5.265 3.5,-1.731 7.5,-3.497 11.94,-5.336 6.05,-2.528 11.47,-5.231 16.3,-8.082 4.83,-2.848 8.98,-6.094 12.4,-9.665 3.46,-3.605 6.1,-7.714 7.94,-12.332 1.84,-4.582 2.74,-9.953 2.74,-16.085 0,-8.477 -1.59,-15.543 -4.8,-21.313 -3.21,-5.734 -7.53,-10.387 -13.05,-13.922 -5.49,-3.57 -11.87,-6.129 -19.15,-7.683 -7.32,-1.547 -15.01,-2.305 -23.12,-2.305 -8.29,0 -16.19,0.683 -23.69,2.09 -7.5,1.406 -14.03,3.535 -19.51,6.347"
         style="fill:#231f20;fill-opacity:1;fill-rule:nonzero;stroke:none"
         id="path28" />
      <path
         d="m 4096,867.848 h -17.35 v 16.914 h -0.4 c -7.53,-12.985 -18.64,-19.442 -33.28,-19.442 -10.78,0 -19.22,2.852 -25.32,8.551 -6.1,5.699 -9.12,13.27 -9.12,22.719 0,20.195 11.9,31.988 35.7,35.269 l 32.42,4.543 c 0,18.395 -7.43,27.59 -22.29,27.59 -13.02,0 -24.77,-4.437 -35.27,-13.308 v 17.746 c 10.64,6.777 22.87,10.133 36.75,10.133 25.43,0 38.16,-13.454 38.16,-40.356 z m -17.35,54.746 -26.07,-3.61 c -8.04,-1.117 -14.1,-3.101 -18.18,-5.988 -4.08,-2.848 -6.13,-7.894 -6.13,-15.144 0,-5.262 1.88,-9.594 5.66,-12.946 3.75,-3.355 8.77,-5.015 15.04,-5.015 8.58,0 15.69,3.031 21.28,9.019 5.63,6.02 8.4,13.668 8.4,22.899 v 10.785"
         style="fill:#231f20;fill-opacity:1;fill-rule:nonzero;stroke:none"
         id="path30" />
      <path
         d="m 4282.26,867.848 h -17.31 v 62.136 c 0,11.973 -1.87,20.629 -5.55,25.965 -3.71,5.375 -9.92,8.043 -18.64,8.043 -7.4,0 -13.71,-3.39 -18.87,-10.133 -5.19,-6.781 -7.78,-14.859 -7.78,-24.308 v -61.703 h -17.32 v 64.226 c 0,21.281 -8.22,31.918 -24.63,31.918 -7.61,0 -13.84,-3.176 -18.78,-9.558 -4.95,-6.383 -7.4,-14.676 -7.4,-24.883 v -61.703 h -17.35 v 108.191 h 17.35 v -17.133 h 0.43 c 7.65,13.129 18.86,19.657 33.58,19.657 7.39,0 13.85,-2.059 19.33,-6.168 5.52,-4.11 9.27,-9.52 11.32,-16.227 8.01,14.93 19.98,22.395 35.92,22.395 23.8,0 35.7,-14.676 35.7,-44.032 v -66.683"
         style="fill:#231f20;fill-opacity:1;fill-rule:nonzero;stroke:none"
         id="path32" />
      <path
         d="m 4332.79,883.496 h -0.43 v -65.418 h -17.35 v 157.961 h 17.35 v -19.008 h 0.43 c 8.51,14.356 20.99,21.532 37.4,21.532 13.92,0 24.81,-4.833 32.63,-14.536 7.83,-9.664 11.73,-22.648 11.73,-38.91 0,-18.105 -4.41,-32.601 -13.21,-43.492 -8.79,-10.855 -20.84,-16.305 -36.13,-16.305 -14.03,0 -24.81,6.063 -32.42,18.176 z m -0.43,43.641 v -15.114 c 0,-8.941 2.88,-16.55 8.72,-22.793 5.81,-6.238 13.17,-9.339 22.11,-9.339 10.49,0 18.72,4.004 24.67,12.047 5.95,8.042 8.94,19.187 8.94,33.503 0,12.043 -2.78,21.457 -8.37,28.309 -5.55,6.816 -13.09,10.242 -22.57,10.242 -10.1,0 -18.18,-3.496 -24.31,-10.492 -6.13,-7.035 -9.19,-15.797 -9.19,-26.363"
         style="fill:#231f20;fill-opacity:1;fill-rule:nonzero;stroke:none"
         id="path34" />
      <path
         d="m 4459.55,867.848 h -17.34 V 1028 h 17.34 V 867.848"
         style="fill:#231f20;fill-opacity:1;fill-rule:nonzero;stroke:none"
         id="path36" />
      <path
         d="m 4581.56,917.613 h -76.38 c 0.28,-12.043 3.53,-21.347 9.73,-27.91 6.2,-6.527 14.72,-9.812 25.57,-9.812 12.19,0 23.37,4.004 33.61,12.047 v -16.266 c -9.52,-6.922 -22.11,-10.352 -37.72,-10.352 -15.29,0 -27.3,4.907 -36.03,14.715 -8.76,9.848 -13.13,23.66 -13.13,41.477 0,16.84 4.8,30.543 14.32,41.144 9.56,10.602 21.42,15.907 35.56,15.907 14.17,0 25.1,-4.583 32.85,-13.743 7.76,-9.121 11.62,-21.851 11.62,-38.117 z m -17.75,14.68 c -0.07,9.988 -2.49,17.777 -7.21,23.367 -4.76,5.555 -11.36,8.332 -19.83,8.332 -8.16,0 -15.11,-2.922 -20.81,-8.765 -5.7,-5.84 -9.23,-13.485 -10.57,-22.934 h 58.42"
         style="fill:#231f20;fill-opacity:1;fill-rule:nonzero;stroke:none"
         id="path38" />
      <path
         d="m 3987.92,580.027 h -90.88 v 151.5 h 87.38 v -27.769 h -53.23 v -33.719 h 49.55 v -27.66 h -49.55 v -34.656 h 56.73 v -27.696"
         style="fill:#231f20;fill-opacity:1;fill-rule:nonzero;stroke:none"
         id="path40" />
      <path
         d="m 4102.23,580.027 h -17.34 v 61.703 c 0,22.973 -8.37,34.442 -25.14,34.442 -8.65,0 -15.83,-3.246 -21.49,-9.774 -5.7,-6.527 -8.51,-14.75 -8.51,-24.668 v -61.703 h -17.35 v 108.188 h 17.35 v -17.961 h 0.43 c 8.15,13.672 19.98,20.488 35.49,20.488 11.83,0 20.88,-3.824 27.15,-11.469 6.28,-7.613 9.41,-18.679 9.41,-33.105 v -66.141"
         style="fill:#231f20;fill-opacity:1;fill-rule:nonzero;stroke:none"
         id="path42" />
      <path
         d="m 4219.95,688.215 -43.13,-108.188 h -16.99 l -41,108.188 h 19 l 27.48,-78.617 c 2.06,-5.77 3.32,-10.785 3.82,-15.11 h 0.4 c 0.72,5.446 1.84,10.348 3.39,14.711 l 28.74,79.016 h 18.29"
         style="fill:#231f20;fill-opacity:1;fill-rule:nonzero;stroke:none"
         id="path44" />
      <path
         d="m 4247.39,715.695 c -3.07,0 -5.73,1.047 -7.89,3.176 -2.21,2.09 -3.29,4.758 -3.29,8.004 0,3.246 1.08,5.953 3.29,8.078 2.16,2.164 4.82,3.246 7.89,3.246 3.17,0 5.88,-1.082 8.11,-3.246 2.2,-2.125 3.32,-4.832 3.32,-8.078 0,-3.102 -1.12,-5.734 -3.32,-7.898 -2.23,-2.2 -4.94,-3.282 -8.11,-3.282 z m 8.47,-135.668 h -17.34 v 108.188 h 17.34 V 580.027"
         style="fill:#231f20;fill-opacity:1;fill-rule:nonzero;stroke:none"
         id="path46" />
      <path
         d="m 4347.36,670.688 c -3.03,2.308 -7.4,3.46 -13.09,3.46 -7.43,0 -13.6,-3.46 -18.57,-10.457 -4.95,-6.961 -7.43,-16.48 -7.43,-28.527 v -55.137 h -17.35 v 108.188 h 17.35 V 665.93 h 0.43 c 2.45,7.609 6.2,13.519 11.29,17.812 5.08,4.258 10.74,6.383 17.02,6.383 4.51,0 7.93,-0.504 10.35,-1.477 v -17.96"
         style="fill:#231f20;fill-opacity:1;fill-rule:nonzero;stroke:none"
         id="path48" />
      <path
         d="m 4411.38,577.5 c -15.98,0 -28.75,5.051 -38.31,15.148 -9.52,10.098 -14.31,23.512 -14.31,40.211 0,18.176 4.97,32.348 14.89,42.59 9.96,10.207 23.37,15.293 40.28,15.293 16.12,0 28.71,-4.941 37.76,-14.898 9.06,-9.914 13.56,-23.692 13.56,-41.289 0,-17.278 -4.87,-31.086 -14.61,-41.477 -9.76,-10.387 -22.86,-15.578 -39.26,-15.578 z m 1.25,98.672 c -11.1,0 -19.9,-3.789 -26.4,-11.363 -6.48,-7.571 -9.73,-17.993 -9.73,-31.34 0,-12.801 3.28,-22.899 9.85,-30.289 6.56,-7.395 15.32,-11.11 26.28,-11.11 11.22,0 19.84,3.641 25.86,10.891 6.03,7.25 9.02,17.562 9.02,30.941 0,13.528 -2.99,23.95 -9.02,31.27 -6.02,7.355 -14.64,11 -25.86,11"
         style="fill:#231f20;fill-opacity:1;fill-rule:nonzero;stroke:none"
         id="path50" />
      <path
         d="m 4582.78,580.027 h -17.34 v 61.703 c 0,22.973 -8.37,34.442 -25.14,34.442 -8.66,0 -15.83,-3.246 -21.5,-9.774 -5.69,-6.527 -8.51,-14.75 -8.51,-24.668 v -61.703 h -17.34 v 108.188 h 17.34 v -17.961 h 0.44 c 8.15,13.672 19.98,20.488 35.48,20.488 11.83,0 20.88,-3.824 27.16,-11.469 6.27,-7.613 9.41,-18.679 9.41,-33.105 v -66.141"
         style="fill:#231f20;fill-opacity:1;fill-rule:nonzero;stroke:none"
         id="path52" />
      <path
         d="m 4769.05,580.027 h -17.31 v 62.137 c 0,11.973 -1.88,20.629 -5.56,25.965 -3.71,5.371 -9.91,8.043 -18.64,8.043 -7.39,0 -13.7,-3.391 -18.86,-10.133 -5.2,-6.781 -7.79,-14.859 -7.79,-24.309 v -61.703 h -17.31 v 64.227 c 0,21.277 -8.22,31.918 -24.63,31.918 -7.61,0 -13.85,-3.176 -18.79,-9.559 -4.94,-6.383 -7.39,-14.679 -7.39,-24.883 v -61.703 h -17.35 v 108.188 h 17.35 v -17.129 h 0.43 c 7.64,13.129 18.86,19.656 33.57,19.656 7.4,0 13.85,-2.058 19.34,-6.168 5.51,-4.109 9.26,-9.523 11.32,-16.23 8,14.929 19.98,22.398 35.92,22.398 23.8,0 35.7,-14.679 35.7,-44.035 v -66.68"
         style="fill:#231f20;fill-opacity:1;fill-rule:nonzero;stroke:none"
         id="path54" />
      <path
         d="m 4888.75,629.793 h -76.39 c 0.29,-12.043 3.53,-21.352 9.74,-27.91 6.2,-6.531 14.71,-9.813 25.57,-9.813 12.19,0 23.37,4.004 33.61,12.047 v -16.265 c -9.52,-6.926 -22.11,-10.352 -37.72,-10.352 -15.29,0 -27.3,4.906 -36.03,14.715 -8.76,9.844 -13.13,23.656 -13.13,41.473 0,16.839 4.8,30.546 14.32,41.148 9.56,10.602 21.42,15.906 35.56,15.906 14.17,0 25.1,-4.582 32.85,-13.742 7.75,-9.121 11.62,-21.852 11.62,-38.117 z m -17.75,14.68 c -0.07,9.988 -2.49,17.777 -7.21,23.367 -4.76,5.555 -11.36,8.332 -19.84,8.332 -8.15,0 -15.11,-2.922 -20.81,-8.766 -5.69,-5.84 -9.23,-13.488 -10.56,-22.933 H 4871"
         style="fill:#231f20;fill-opacity:1;fill-rule:nonzero;stroke:none"
         id="path56" />
      <path
         d="m 5004.79,580.027 h -17.34 v 61.703 c 0,22.973 -8.37,34.442 -25.14,34.442 -8.65,0 -15.83,-3.246 -21.49,-9.774 -5.7,-6.527 -8.51,-14.75 -8.51,-24.668 v -61.703 h -17.35 v 108.188 h 17.35 v -17.961 h 0.43 c 8.15,13.672 19.98,20.488 35.49,20.488 11.83,0 20.88,-3.824 27.15,-11.469 6.28,-7.613 9.41,-18.679 9.41,-33.105 v -66.141"
         style="fill:#231f20;fill-opacity:1;fill-rule:nonzero;stroke:none"
         id="path58" />
      <path
         d="m 5087.63,581.07 c -4.07,-2.234 -9.48,-3.351 -16.15,-3.351 -18.97,0 -28.42,10.562 -28.42,31.699 v 64.012 h -18.61 v 14.785 h 18.61 v 26.398 l 17.31,5.625 v -32.023 h 27.26 V 673.43 h -27.26 v -60.985 c 0,-7.246 1.23,-12.402 3.72,-15.504 2.45,-3.101 6.52,-4.652 12.25,-4.652 4.37,0 8.12,1.188 11.29,3.606 V 581.07"
         style="fill:#231f20;fill-opacity:1;fill-rule:nonzero;stroke:none"
         id="path60" />
      <path
         d="m 4005.66,297.578 c -11.03,-5.336 -25.5,-8.008 -43.31,-8.008 -23.22,0 -41.51,6.817 -54.82,20.489 -13.34,13.664 -19.98,31.875 -19.98,54.632 0,24.235 7.47,43.891 22.43,58.965 14.97,15.074 34.41,22.61 58.28,22.61 14.79,0 27.26,-1.875 37.4,-5.625 v -32.852 c -10.14,6.055 -21.68,9.086 -34.66,9.086 -14.2,0 -25.71,-4.469 -34.44,-13.418 -8.72,-8.941 -13.09,-21.059 -13.09,-36.352 0,-14.64 4.12,-26.324 12.37,-35.015 8.23,-8.692 19.33,-13.055 33.29,-13.055 13.3,0 25.5,3.246 36.53,9.735 v -31.192"
         style="fill:#231f20;fill-opacity:1;fill-rule:nonzero;stroke:none"
         id="path62" />
      <path
         d="m 4080.35,289.57 c -18.03,0 -32.21,5.051 -42.52,15.149 -10.31,10.097 -15.47,23.836 -15.47,41.148 0,17.887 5.33,31.914 16.05,42.012 10.7,10.101 25.2,15.148 43.41,15.148 17.97,0 32.07,-5.047 42.27,-15.148 10.21,-10.098 15.33,-23.477 15.33,-40.102 0,-17.961 -5.27,-32.168 -15.8,-42.589 -10.53,-10.422 -24.95,-15.618 -43.27,-15.618 z m 0.86,87.891 c -7.9,0 -14.03,-2.707 -18.39,-8.117 -4.37,-5.446 -6.57,-13.129 -6.57,-23.047 0,-20.77 8.41,-31.156 25.18,-31.156 15.98,0 23.98,10.675 23.98,31.988 0,20.23 -8.08,30.332 -24.2,30.332"
         style="fill:#231f20;fill-opacity:1;fill-rule:nonzero;stroke:none"
         id="path64" />
      <path
         d="m 4318.18,292.203 h -17.3 v 62.141 c 0,11.969 -1.88,20.625 -5.56,25.965 -3.71,5.371 -9.91,8.043 -18.64,8.043 -7.39,0 -13.71,-3.391 -18.86,-10.137 -5.2,-6.777 -7.8,-14.86 -7.8,-24.305 v -61.707 h -17.31 v 64.231 c 0,21.277 -8.22,31.918 -24.63,31.918 -7.61,0 -13.84,-3.176 -18.78,-9.559 -4.94,-6.387 -7.4,-14.68 -7.4,-24.883 v -61.707 h -17.35 v 108.192 h 17.35 v -17.129 h 0.43 c 7.65,13.125 18.87,19.656 33.58,19.656 7.39,0 13.85,-2.059 19.33,-6.172 5.52,-4.109 9.27,-9.52 11.32,-16.227 8.01,14.93 19.98,22.399 35.92,22.399 23.81,0 35.7,-14.68 35.7,-44.035 v -66.684"
         style="fill:#231f20;fill-opacity:1;fill-rule:nonzero;stroke:none"
         id="path66" />
      <path
         d="m 4504.56,292.203 h -17.31 v 62.141 c 0,11.969 -1.87,20.625 -5.55,25.965 -3.72,5.371 -9.92,8.043 -18.65,8.043 -7.39,0 -13.7,-3.391 -18.86,-10.137 -5.19,-6.777 -7.79,-14.86 -7.79,-24.305 v -61.707 h -17.31 v 64.231 c 0,21.277 -8.22,31.918 -24.63,31.918 -7.61,0 -13.85,-3.176 -18.79,-9.559 -4.94,-6.387 -7.39,-14.68 -7.39,-24.883 v -61.707 h -17.35 v 108.192 h 17.35 v -17.129 h 0.43 c 7.65,13.125 18.86,19.656 33.58,19.656 7.39,0 13.84,-2.059 19.32,-6.172 5.52,-4.109 9.27,-9.52 11.33,-16.227 8.01,14.93 19.98,22.399 35.92,22.399 23.8,0 35.7,-14.68 35.7,-44.035 v -66.684"
         style="fill:#231f20;fill-opacity:1;fill-rule:nonzero;stroke:none"
         id="path68" />
      <path
         d="m 4624.79,292.203 h -17.31 v 17.133 h -0.43 c -7.17,-13.129 -18.32,-19.656 -33.39,-19.656 -25.79,0 -38.66,15.324 -38.66,46.054 v 64.661 h 17.2 v -61.922 c 0,-22.825 8.76,-34.223 26.22,-34.223 8.44,0 15.4,3.102 20.88,9.34 5.45,6.238 8.18,14.39 8.18,24.488 v 62.317 h 17.31 V 292.203"
         style="fill:#231f20;fill-opacity:1;fill-rule:nonzero;stroke:none"
         id="path70" />
      <path
         d="m 4749.61,292.203 h -17.35 v 61.707 c 0,22.973 -8.37,34.442 -25.13,34.442 -8.66,0 -15.84,-3.247 -21.5,-9.778 -5.69,-6.527 -8.51,-14.746 -8.51,-24.664 v -61.707 h -17.34 v 108.192 h 17.34 v -17.961 h 0.43 c 8.15,13.668 19.99,20.488 35.49,20.488 11.83,0 20.88,-3.824 27.16,-11.473 6.27,-7.609 9.41,-18.679 9.41,-33.105 v -66.141"
         style="fill:#231f20;fill-opacity:1;fill-rule:nonzero;stroke:none"
         id="path72" />
      <path
         d="m 4791.12,427.875 c -3.07,0 -5.73,1.043 -7.9,3.172 -2.2,2.094 -3.28,4.762 -3.28,8.008 0,3.246 1.08,5.953 3.28,8.078 2.17,2.16 4.83,3.246 7.9,3.246 3.17,0 5.88,-1.086 8.11,-3.246 2.2,-2.125 3.32,-4.832 3.32,-8.078 0,-3.102 -1.12,-5.735 -3.32,-7.899 -2.23,-2.199 -4.94,-3.281 -8.11,-3.281 z m 8.47,-135.672 h -17.34 v 108.192 h 17.34 V 292.203"
         style="fill:#231f20;fill-opacity:1;fill-rule:nonzero;stroke:none"
         id="path74" />
      <path
         d="m 4908.4,297.184 c -8.3,-5.016 -18.18,-7.504 -29.58,-7.504 -15.43,0 -27.87,5.011 -37.36,15.039 -9.44,10.023 -14.21,23.043 -14.21,39.054 0,17.817 5.13,32.137 15.33,42.954 10.21,10.781 23.84,16.195 40.9,16.195 9.52,0 17.88,-1.734 25.14,-5.27 V 379.91 c -8.05,5.625 -16.63,8.442 -25.79,8.442 -11.04,0 -20.12,-3.969 -27.19,-11.907 -7.07,-7.894 -10.64,-18.32 -10.64,-31.191 0,-12.695 3.36,-22.684 9.99,-30.004 6.67,-7.32 15.58,-11 26.79,-11 9.45,0 18.32,3.137 26.62,9.414 v -16.48"
         style="fill:#231f20;fill-opacity:1;fill-rule:nonzero;stroke:none"
         id="path76" />
      <path
         d="m 5012.05,292.203 h -17.35 v 16.914 h -0.4 c -7.54,-12.98 -18.64,-19.437 -33.28,-19.437 -10.79,0 -19.23,2.851 -25.32,8.547 -6.1,5.699 -9.13,13.269 -9.13,22.722 0,20.192 11.91,31.985 35.71,35.266 l 32.42,4.547 c 0,18.394 -7.43,27.59 -22.29,27.59 -13.02,0 -24.77,-4.438 -35.27,-13.309 v 17.742 c 10.64,6.778 22.86,10.137 36.75,10.137 25.43,0 38.16,-13.453 38.16,-40.359 z m -17.35,54.746 -26.07,-3.609 c -8.05,-1.113 -14.1,-3.098 -18.18,-5.985 -4.08,-2.851 -6.13,-7.898 -6.13,-15.144 0,-5.266 1.88,-9.594 5.66,-12.949 3.75,-3.356 8.76,-5.012 15.04,-5.012 8.58,0 15.69,3.027 21.28,9.016 5.62,6.019 8.4,13.668 8.4,22.902 v 10.781"
         style="fill:#231f20;fill-opacity:1;fill-rule:nonzero;stroke:none"
         id="path78" />
      <path
         d="m 5094.88,293.25 c -4.08,-2.234 -9.48,-3.352 -16.15,-3.352 -18.97,0 -28.42,10.563 -28.42,31.7 v 64.011 h -18.61 v 14.786 h 18.61 v 26.398 l 17.31,5.625 v -32.023 h 27.26 v -14.786 h -27.26 v -60.984 c 0,-7.25 1.22,-12.406 3.71,-15.508 2.46,-3.097 6.53,-4.648 12.26,-4.648 4.37,0 8.12,1.187 11.29,3.605 V 293.25"
         style="fill:#231f20;fill-opacity:1;fill-rule:nonzero;stroke:none"
         id="path80" />
      <path
         d="m 5126.87,427.875 c -3.07,0 -5.73,1.043 -7.9,3.172 -2.2,2.094 -3.28,4.762 -3.28,8.008 0,3.246 1.08,5.953 3.28,8.078 2.17,2.16 4.83,3.246 7.9,3.246 3.17,0 5.88,-1.086 8.11,-3.246 2.2,-2.125 3.32,-4.832 3.32,-8.078 0,-3.102 -1.12,-5.735 -3.32,-7.899 -2.23,-2.199 -4.94,-3.281 -8.11,-3.281 z m 8.47,-135.672 H 5118 v 108.192 h 17.34 V 292.203"
         style="fill:#231f20;fill-opacity:1;fill-rule:nonzero;stroke:none"
         id="path82" />
      <path
         d="m 5215.63,289.68 c -15.98,0 -28.75,5.05 -38.31,15.148 -9.52,10.098 -14.31,23.512 -14.31,40.207 0,18.176 4.97,32.352 14.89,42.594 9.96,10.207 23.37,15.293 40.28,15.293 16.12,0 28.71,-4.942 37.76,-14.899 9.06,-9.914 13.56,-23.691 13.56,-41.293 0,-17.273 -4.86,-31.082 -14.61,-41.472 -9.76,-10.387 -22.85,-15.578 -39.26,-15.578 z m 1.26,98.672 c -11.11,0 -19.91,-3.789 -26.4,-11.364 -6.49,-7.57 -9.74,-17.992 -9.74,-31.34 0,-12.8 3.28,-22.898 9.85,-30.289 6.56,-7.394 15.33,-11.109 26.29,-11.109 11.21,0 19.83,3.641 25.85,10.891 6.03,7.25 9.02,17.562 9.02,30.941 0,13.523 -2.99,23.949 -9.02,31.266 -6.02,7.359 -14.64,11.004 -25.85,11.004"
         style="fill:#231f20;fill-opacity:1;fill-rule:nonzero;stroke:none"
         id="path84" />
      <path
         d="m 5387.03,292.203 h -17.34 v 61.707 c 0,22.973 -8.37,34.442 -25.14,34.442 -8.66,0 -15.83,-3.247 -21.49,-9.778 -5.7,-6.527 -8.51,-14.746 -8.51,-24.664 v -61.707 h -17.35 v 108.192 h 17.35 v -17.961 h 0.43 c 8.15,13.668 19.98,20.488 35.48,20.488 11.83,0 20.88,-3.824 27.16,-11.473 6.28,-7.609 9.41,-18.679 9.41,-33.105 v -66.141"
         style="fill:#231f20;fill-opacity:1;fill-rule:nonzero;stroke:none"
         id="path86" />
      <path
         d="M 3931.19,56.5664 V 4.38281 h -34.15 V 155.887 h 53.48 c 38.19,0 57.27,-16.086 57.27,-48.293 0,-15.219 -5.49,-27.5159 -16.45,-36.926 -10.96,-9.375 -25.57,-14.1016 -43.88,-14.1016 z m 0,73.1366 V 82.4609 h 13.41 c 18.18,0 27.27,7.9688 27.27,23.8711 0,15.582 -9.09,23.371 -27.27,23.371 h -13.41"
         style="fill:#231f20;fill-opacity:1;fill-rule:nonzero;stroke:none"
         id="path88" />
      <path
         d="m 4086.63,95.0469 c -3.04,2.3086 -7.4,3.4609 -13.1,3.4609 -7.43,0 -13.59,-3.4609 -18.57,-10.457 -4.94,-6.961 -7.43,-16.4805 -7.43,-28.5274 V 4.38281 h -17.35 V 112.574 h 17.35 V 90.2852 h 0.43 c 2.45,7.6093 6.2,13.5238 11.29,17.8168 5.09,4.257 10.75,6.382 17.02,6.382 4.51,0 7.94,-0.504 10.36,-1.476 V 95.0469"
         style="fill:#231f20;fill-opacity:1;fill-rule:nonzero;stroke:none"
         id="path90" />
      <path
         d="m 4150.64,1.85547 c -15.98,0 -28.75,5.05469 -38.3,15.14843 -9.52,10.0977 -14.32,23.5156 -14.32,40.2109 0,18.1758 4.98,32.3477 14.89,42.5899 9.96,10.2073 23.37,15.2933 40.29,15.2933 16.12,0 28.7,-4.942 37.75,-14.895 9.06,-9.9178 13.57,-23.6913 13.57,-41.2928 0,-17.2735 -4.87,-31.086 -14.61,-41.4727 -9.77,-10.38672 -22.86,-15.58203 -39.27,-15.58203 z m 1.26,98.67153 c -11.11,0 -19.91,-3.7848 -26.4,-11.359 -6.49,-7.5703 -9.74,-17.9961 -9.74,-31.3399 0,-12.8008 3.28,-22.8984 9.85,-30.2929 6.56,-7.3907 15.33,-11.1094 26.29,-11.1094 11.21,0 19.83,3.6445 25.86,10.8906 6.02,7.2539 9.01,17.5664 9.01,30.9453 0,13.5235 -2.99,23.9453 -9.01,31.2656 -6.03,7.3594 -14.65,10.9997 -25.86,10.9997"
         style="fill:#231f20;fill-opacity:1;fill-rule:nonzero;stroke:none"
         id="path92" />
      <path
         d="m 4282.41,5.42969 c -4.07,-2.23828 -9.48,-3.35547 -16.15,-3.35547 -18.97,0 -28.42,10.56638 -28.42,31.70308 v 64.0118 h -18.61 v 14.7849 h 18.61 v 26.399 l 17.31,5.625 v -32.024 h 27.26 V 97.7891 h -27.26 V 36.8047 c 0,-7.25 1.23,-12.4063 3.71,-15.5078 2.46,-3.1016 6.53,-4.6524 12.27,-4.6524 4.36,0 8.11,1.1875 11.28,3.6055 V 5.42969"
         style="fill:#231f20;fill-opacity:1;fill-rule:nonzero;stroke:none"
         id="path94" />
      <path
         d="m 4350.75,1.85547 c -15.97,0 -28.74,5.05469 -38.29,15.14843 -9.53,10.0977 -14.32,23.5156 -14.32,40.2109 0,18.1758 4.97,32.3477 14.89,42.5899 9.95,10.2073 23.37,15.2933 40.28,15.2933 16.12,0 28.71,-4.942 37.76,-14.895 9.06,-9.9178 13.56,-23.6913 13.56,-41.2928 0,-17.2735 -4.86,-31.086 -14.6,-41.4727 -9.78,-10.38672 -22.87,-15.58203 -39.28,-15.58203 z m 1.27,98.67153 c -11.11,0 -19.91,-3.7848 -26.4,-11.359 -6.49,-7.5703 -9.74,-17.9961 -9.74,-31.3399 0,-12.8008 3.28,-22.8984 9.85,-30.2929 6.56,-7.3907 15.32,-11.1094 26.29,-11.1094 11.21,0 19.83,3.6445 25.86,10.8906 6.02,7.2539 9.01,17.5664 9.01,30.9453 0,13.5235 -2.99,23.9453 -9.01,31.2656 -6.03,7.3594 -14.65,10.9997 -25.86,10.9997"
         style="fill:#231f20;fill-opacity:1;fill-rule:nonzero;stroke:none"
         id="path96" />
      <path
         d="m 4506.08,9.35938 c -8.29,-5.01172 -18.18,-7.50391 -29.57,-7.50391 -15.44,0 -27.88,5.01562 -37.36,15.04293 -9.45,10.0235 -14.21,23.043 -14.21,39.0547 0,17.8164 5.12,32.1328 15.33,42.9532 10.2,10.7817 23.83,16.1917 40.89,16.1917 9.52,0 17.89,-1.731 25.14,-5.266 V 92.0898 c -8.05,5.625 -16.63,8.4372 -25.79,8.4372 -11.03,0 -20.12,-3.9684 -27.19,-11.902 -7.07,-7.8984 -10.64,-18.3203 -10.64,-31.1914 0,-12.6953 3.36,-22.6875 9.99,-30.0039 6.67,-7.3242 15.58,-11.0039 26.79,-11.0039 9.45,0 18.33,3.1406 26.62,9.414 V 9.35938"
         style="fill:#231f20;fill-opacity:1;fill-rule:nonzero;stroke:none"
         id="path98" />
      <path
         d="m 4577.48,1.85547 c -15.97,0 -28.74,5.05469 -38.29,15.14843 -9.53,10.0977 -14.32,23.5156 -14.32,40.2109 0,18.1758 4.98,32.3477 14.89,42.5899 9.96,10.2073 23.37,15.2933 40.29,15.2933 16.12,0 28.7,-4.942 37.75,-14.895 9.06,-9.9178 13.56,-23.6913 13.56,-41.2928 0,-17.2735 -4.86,-31.086 -14.6,-41.4727 -9.77,-10.38672 -22.87,-15.58203 -39.28,-15.58203 z m 1.27,98.67153 c -11.11,0 -19.91,-3.7848 -26.4,-11.359 -6.49,-7.5703 -9.74,-17.9961 -9.74,-31.3399 0,-12.8008 3.28,-22.8984 9.85,-30.2929 6.56,-7.3907 15.33,-11.1094 26.29,-11.1094 11.21,0 19.83,3.6445 25.86,10.8906 6.02,7.2539 9.01,17.5664 9.01,30.9453 0,13.5235 -2.99,23.9453 -9.01,31.2656 -6.03,7.3594 -14.65,10.9997 -25.86,10.9997"
         style="fill:#231f20;fill-opacity:1;fill-rule:nonzero;stroke:none"
         id="path100" />
      <path
         d="m 4676.41,4.38281 h -17.35 V 164.539 h 17.35 V 4.38281"
         style="fill:#231f20;fill-opacity:1;fill-rule:nonzero;stroke:none"
         id="path102" />
    </g>
  </g>
</svg>
