<?xml version="1.0" encoding="UTF-8" standalone="no"?>
<!-- Created with Inkscape (http://www.inkscape.org/) -->

<svg
   version="1.1"
   id="svg2"
   width="634.66669"
   height="213.33333"
   viewBox="0 0 634.66669 213.33333"
   sodipodi:docname="SECoP12_subtitle-transparent-counters-light.svg"
   inkscape:version="1.2.2 (b0a8486541, 2022-12-01)"
   xmlns:inkscape="http://www.inkscape.org/namespaces/inkscape"
   xmlns:sodipodi="http://sodipodi.sourceforge.net/DTD/sodipodi-0.dtd"
   xmlns="http://www.w3.org/2000/svg"
   xmlns:svg="http://www.w3.org/2000/svg">
  <defs
     id="defs6" />
  <sodipodi:namedview
     id="namedview4"
     pagecolor="#505050"
     bordercolor="#eeeeee"
     borderopacity="1"
     inkscape:showpageshadow="0"
     inkscape:pageopacity="0"
     inkscape:pagecheckerboard="0"
     inkscape:deskcolor="#505050"
     showgrid="false"
     inkscape:zoom="1.10625"
     inkscape:cx="283.38983"
     inkscape:cy="106.66667"
     inkscape:window-width="1920"
     inkscape:window-height="1171"
     inkscape:window-x="1920"
     inkscape:window-y="0"
     inkscape:window-maximized="1"
     inkscape:current-layer="g10" />
  <g
     id="g8"
     inkscape:groupmode="layer"
     inkscape:label="ink_ext_XXXXXX"
     transform="matrix(1.3333333,0,0,-1.3333333,0,213.33333)">
    <g
       id="g10"
       transform="scale(0.1)">
      <path
         id="path12"
         style="fill:#fcfcfc;fill-opacity:1;fill-rule:evenodd;stroke:none"
         d="M 3636.9435 1219.2432 L 3636.9435 295.02928 L 3845.2882 295.02928 L 3845.2882 613.36913 L 3944.5167 613.36913 C 4056.2766 613.36913 4145.3663 642.18582 4212.2462 699.38476 C 4279.1261 756.8067 4312.5734 831.82318 4312.5734 924.66308 C 4312.5734 1121.1249 4196.1879 1219.2432 3963.2081 1219.2432 L 3636.9435 1219.2432 z M 3845.2882 1059.5313 L 3927.129 1059.5313 C 4038.0089 1059.5313 4093.4474 1012.0036 4093.4474 916.97265 C 4093.4474 819.94875 4038.0089 771.32324 3927.129 771.32324 L 3845.2882 771.32324 L 3845.2882 1059.5313 z " />
      <path
         id="path14"
         style="fill:#fcfcfc;fill-opacity:1;fill-rule:evenodd;stroke:none"
         d="M 3143.5108 987.16797 C 3032.4109 987.16797 2943.9631 956.35856 2878.6231 894.76562 C 2813.2932 833.15968 2780.7276 747.5828 2780.7276 638.46191 C 2780.7276 532.86001 2812.1876 449.04821 2875.1075 387.44627 C 2938.0274 325.84934 3024.4875 295.04393 3134.4874 295.04393 C 3246.2473 295.04393 3334.2562 326.72078 3398.4962 390.30272 C 3462.7361 453.88466 3494.8536 540.56317 3494.8536 650.12206 C 3494.8536 751.53996 3463.6126 833.15968 3401.3526 894.76562 C 3339.0927 956.35856 3253.0707 987.16797 3143.5108 987.16797 z M 3139.7755 831.17675 C 3238.1154 831.17675 3287.3878 769.58486 3287.3878 646.16698 C 3287.3878 516.14811 3238.5537 451.02049 3141.0938 451.02049 C 3038.7939 451.02049 2987.5343 514.37975 2987.5343 641.09862 C 2987.5343 701.59856 3000.9485 748.45672 3027.5684 781.67968 C 3054.1884 814.67965 3091.5955 831.17675 3139.7755 831.17675 z " />
      <path
         d="m 2668.96,342.813 c -65.02,-31.454 -150.23,-47.172 -255.19,-47.172 -136.84,0 -244.57,40.156 -322.98,120.691 -78.62,80.531 -117.72,187.832 -117.72,321.91 0,142.789 43.99,258.594 132.17,347.408 88.18,88.82 202.71,133.23 343.37,133.23 87.12,0 160.64,-11.05 220.35,-33.15 V 992.16 c -59.71,35.7 -127.7,53.54 -204.2,53.54 -83.72,0 -151.5,-26.34 -202.92,-79.04 -51.42,-52.695 -77.13,-124.086 -77.13,-214.183 0,-86.266 24.22,-155.11 72.88,-206.321 48.45,-51.211 113.89,-76.922 196.12,-76.922 78.41,0 150.23,19.125 215.25,57.371 V 342.813"
         style="fill:#fcfcfc;fill-opacity:1;fill-rule:evenodd;stroke:none"
         id="path20" />
      <path
         d="m 1858.26,295.031 h -554.39 v 924.219 h 533.06 V 1049.84 H 1512.2 V 844.145 h 302.28 V 675.406 H 1512.2 V 463.988 h 346.06 V 295.031"
         style="fill:#fcfcfc;fill-opacity:1;fill-rule:evenodd;stroke:none"
         id="path22" />
      <path
         d="m 11.6836,299.352 c 230.5704,0 460.3004,0.039 690.8634,0.039 188,0 267.855,30.347 349.443,109.476 54.51,52.856 117.48,143.93 116.87,279.5 -1.5,330.713 -302.063,293.512 -296.794,482.613 1.188,42.78 27.766,83.72 65.325,104.59 35.668,19.81 71.559,29.56 130.279,29.7 240.11,0.59 -0.79,0 249.05,0.39 l 3266.92,-0.01 164.77,283.55 -3564.89,0.01 c -159.99,-3.87 -330.481,8.72 -459.411,-110.26 C 620.879,1383.7 585.367,1274.19 584.953,1175.16 584.516,1070.15 617.059,998.914 654.758,944.598 744.289,815.594 890.207,790.176 888.977,692.965 887.652,588.605 787.496,576.238 622.352,577.051 472.859,577.789 322.902,576.555 173.379,577.09 L 11.6836,299.352"
         style="fill:#fcfcfc;fill-opacity:1;fill-rule:evenodd;stroke:none"
         id="path24" />
      <path
         d="m 11.6836,299.352 c 230.5704,0 460.3004,0.039 690.8634,0.039 188,0 267.855,30.347 349.443,109.476 54.51,52.856 117.48,143.93 116.87,279.5 -1.5,330.713 -302.063,293.512 -296.794,482.613 1.188,42.78 27.766,83.72 65.325,104.59 35.668,19.81 71.559,29.56 130.279,29.7 240.11,0.59 -0.79,0 249.05,0.39 l 3266.92,-0.01 164.77,283.55 -3564.89,0.01 c -159.99,-3.87 -330.481,8.72 -459.411,-110.26 C 620.879,1383.7 585.367,1274.19 584.953,1175.16 584.516,1070.15 617.059,998.914 654.758,944.598 744.289,815.594 890.207,790.176 888.977,692.965 887.652,588.605 787.496,576.238 622.352,577.051 c -149.493,0.738 -299.45,-0.496 -448.973,0.039 z"
         style="fill:none;stroke:#231f20;stroke-width:4.9975;stroke-linecap:butt;stroke-linejoin:miter;stroke-miterlimit:22.9256;stroke-dasharray:none;stroke-opacity:1"
         id="path26" />
      <path
         d="m 12.3438,66.8281 v 36.3239 c 6.582,-5.5348 13.7421,-9.6793 21.4492,-12.4293 7.707,-2.75 15.4883,-4.1407 23.3515,-4.1407 4.6485,0 8.6758,0.4258 12.0821,1.2383 3.4492,0.8516 6.3125,1.9727 8.6367,3.4844 2.3242,1.4687 4.0273,3.2148 5.1484,5.1914 1.1641,2.0117 1.7031,4.1799 1.7031,6.5389 0,3.18 -0.8906,6.004 -2.707,8.485 -1.8203,2.515 -4.3008,4.839 -7.4375,6.933 -3.1367,2.129 -6.8515,4.18 -11.1914,6.117 -4.2969,1.973 -8.9453,3.989 -13.9414,6.039 -12.6992,5.266 -22.1875,11.731 -28.4219,19.399 -6.2343,7.629 -9.3359,16.847 -9.3359,27.652 0,8.481 1.668,15.758 5.0742,21.84 3.4102,6.117 8.0586,11.113 13.9024,15.063 5.8867,3.914 12.664,6.816 20.371,8.675 7.7071,1.86 15.875,2.789 24.5118,2.789 8.4804,0 15.9922,-0.543 22.5351,-1.55 6.5078,-1.008 12.5468,-2.594 18.0858,-4.723 v -33.922 c -2.75,1.895 -5.691,3.559 -8.906,4.992 -3.215,1.434 -6.543,2.633 -9.9532,3.602 -3.3672,0.929 -6.7774,1.625 -10.1445,2.09 -3.3711,0.425 -6.543,0.66 -9.5665,0.66 -4.1796,0 -7.9375,-0.387 -11.3437,-1.16 -3.4063,-0.813 -6.2734,-1.938 -8.6367,-3.371 -2.3242,-1.43 -4.1406,-3.137 -5.461,-5.149 -1.2773,-2.016 -1.8945,-4.262 -1.8945,-6.738 0,-2.75 0.6953,-5.188 2.1289,-7.32 1.4336,-2.168 3.4844,-4.219 6.1563,-6.157 2.6328,-1.898 5.8476,-3.797 9.6445,-5.652 3.7539,-1.859 8.0508,-3.758 12.8164,-5.731 6.5039,-2.714 12.3125,-5.617 17.5,-8.675 5.191,-3.063 9.645,-6.543 13.324,-10.379 3.715,-3.875 6.543,-8.285 8.52,-13.246 1.972,-4.914 2.941,-10.684 2.941,-17.266 0,-9.1054 -1.703,-16.6914 -5.148,-22.8867 -3.446,-6.1601 -8.098,-11.1523 -14.02,-14.9492 -5.8865,-3.8359 -12.7381,-6.5859 -20.5623,-8.25 -7.8594,-1.6641 -16.1094,-2.4766 -24.8203,-2.4766 -8.9063,0 -17.3867,0.7344 -25.4453,2.2461 -8.0508,1.5117 -15.0625,3.7969 -20.9453,6.8125"
         style="fill:#fcfcfc;fill-opacity:1;fill-rule:nonzero;stroke:none"
         id="path28" />
      <path
         d="M 944.004,60.5977 H 846.418 V 223.277 h 93.828 v -29.82 H 883.09 v -36.203 h 53.207 V 127.551 H 883.09 V 90.3359 h 60.914 V 60.5977"
         style="fill:#fcfcfc;fill-opacity:1;fill-rule:nonzero;stroke:none"
         id="path30" />
      <path
         d="m 2329.75,66.3633 c -11.85,-5.7266 -27.38,-8.5938 -46.51,-8.5938 -24.94,0 -44.57,7.3203 -58.86,21.9961 -14.33,14.6758 -21.45,34.2344 -21.45,58.6684 0,26.019 8.01,47.125 24.09,63.312 16.06,16.188 36.94,24.281 62.57,24.281 15.88,0 29.27,-2.015 40.16,-6.043 v -35.277 c -10.89,6.508 -23.27,9.758 -37.21,9.758 -15.26,0 -27.61,-4.801 -36.99,-14.406 -9.37,-9.602 -14.05,-22.614 -14.05,-39.032 0,-15.722 4.41,-28.269 13.28,-37.601 8.83,-9.3322 20.76,-14.0197 35.74,-14.0197 14.29,0 27.38,3.4843 39.23,10.457 v -33.5"
         style="fill:#fcfcfc;fill-opacity:1;fill-rule:nonzero;stroke:none"
         id="path32" />
      <path
         d="m 2409.95,57.7695 c -19.36,0 -34.59,5.4219 -45.66,16.2618 -11.08,10.8437 -16.61,25.5976 -16.61,44.1877 0,19.203 5.73,34.269 17.23,45.113 11.5,10.844 27.07,16.262 46.62,16.262 19.29,0 34.43,-5.418 45.39,-16.262 10.96,-10.844 16.46,-25.211 16.46,-43.062 0,-19.286 -5.66,-34.5434 -16.96,-45.7348 -11.31,-11.1875 -26.8,-16.7657 -46.47,-16.7657 z m 0.93,94.3715 c -8.49,0 -15.07,-2.907 -19.75,-8.715 -4.69,-5.848 -7.05,-14.094 -7.05,-24.742 0,-22.3051 9.02,-33.4613 27.03,-33.4613 17.15,0 25.75,11.4648 25.75,34.3513 0,21.723 -8.67,32.567 -25.98,32.567"
         style="fill:#fcfcfc;fill-opacity:1;fill-rule:nonzero;stroke:none"
         id="path34" />
      <path
         d="M 3948.18,116.629 V 60.5977 h -36.67 V 223.277 h 57.44 c 41,0 61.48,-17.273 61.48,-51.851 0,-16.344 -5.88,-29.551 -17.65,-39.656 -11.77,-10.067 -27.46,-15.141 -47.13,-15.141 z m 0,78.535 v -50.73 h 14.41 c 19.52,0 29.28,8.558 29.28,25.636 0,16.727 -9.76,25.094 -29.28,25.094 h -14.41"
         style="fill:#fcfcfc;fill-opacity:1;fill-rule:nonzero;stroke:none"
         id="path36" />
      <path
         d="m 233.457,60.5977 h -18.629 v 18.1601 h -0.426 C 206.313,64.8164 194.383,57.8867 178.66,57.8867 c -11.578,0 -20.64,3.0586 -27.183,9.1758 -6.543,6.1211 -9.797,14.2539 -9.797,24.3984 0,21.6841 12.781,34.3481 38.336,37.8711 l 34.812,4.879 c 0,19.75 -7.976,29.625 -23.93,29.625 -13.98,0 -26.601,-4.766 -37.871,-14.293 v 19.055 c 11.422,7.281 24.551,10.879 39.461,10.879 27.297,0 40.969,-14.442 40.969,-43.329 z m -18.629,58.7813 -27.996,-3.871 c -8.637,-1.199 -15.141,-3.332 -19.516,-6.43 -4.378,-3.058 -6.582,-8.48 -6.582,-16.2616 0,-5.6562 2.012,-10.3008 6.075,-13.9023 4.031,-3.6016 9.414,-5.3828 16.152,-5.3828 9.215,0 16.844,3.25 22.844,9.6796 6.043,6.4649 9.023,14.6797 9.023,24.5901 v 11.578"
         style="fill:#fcfcfc;fill-opacity:1;fill-rule:nonzero;stroke:none"
         id="path38" />
      <path
         d="m 433.465,60.5977 h -18.586 v 66.7183 c 0,12.856 -2.016,22.153 -5.965,27.883 -3.988,5.77 -10.648,8.637 -20.019,8.637 -7.938,0 -14.715,-3.641 -20.25,-10.883 -5.582,-7.281 -8.368,-15.953 -8.368,-26.101 V 60.5977 h -18.586 v 68.9653 c 0,22.847 -8.832,34.273 -26.449,34.273 -8.172,0 -14.871,-3.41 -20.176,-10.262 -5.304,-6.855 -7.937,-15.761 -7.937,-26.722 V 60.5977 H 268.5 V 176.77 h 18.629 v -18.395 h 0.465 c 8.207,14.098 20.25,21.102 36.051,21.102 7.937,0 14.867,-2.204 20.757,-6.622 5.922,-4.414 9.95,-10.218 12.157,-17.421 8.597,16.027 21.457,24.043 38.57,24.043 25.559,0 38.336,-15.758 38.336,-47.282 V 60.5977"
         style="fill:#fcfcfc;fill-opacity:1;fill-rule:nonzero;stroke:none"
         id="path40" />
      <path
         d="m 487.719,77.4023 h -0.465 V 7.15625 H 468.625 V 176.77 h 18.629 v -20.407 h 0.465 c 9.136,15.41 22.539,23.114 40.156,23.114 14.949,0 26.641,-5.184 35.047,-15.602 8.402,-10.379 12.586,-24.32 12.586,-41.785 0,-19.438 -4.727,-35.008 -14.176,-46.6994 -9.449,-11.6562 -22.379,-17.5039 -38.801,-17.5039 -15.062,0 -26.64,6.5039 -34.812,19.5156 z m -0.465,46.8557 v -16.223 c 0,-9.6053 3.098,-17.7772 9.371,-24.4764 6.234,-6.6953 14.133,-10.0273 23.738,-10.0273 11.27,0 20.098,4.2968 26.485,12.9335 6.394,8.6329 9.605,20.6012 9.605,35.9762 0,12.93 -2.984,23.039 -8.984,30.399 -5.965,7.316 -14.055,10.996 -24.242,10.996 -10.84,0 -19.516,-3.758 -26.098,-11.27 -6.586,-7.55 -9.875,-16.961 -9.875,-28.308"
         style="fill:#fcfcfc;fill-opacity:1;fill-rule:nonzero;stroke:none"
         id="path42" />
      <path
         d="M 623.832,60.5977 H 605.207 V 232.57 h 18.625 V 60.5977"
         style="fill:#fcfcfc;fill-opacity:1;fill-rule:nonzero;stroke:none"
         id="path44" />
      <path
         d="m 754.836,114.035 h -82.02 c 0.309,-12.933 3.797,-22.9256 10.457,-29.9725 6.661,-7.0078 15.797,-10.5312 27.454,-10.5312 13.089,0 25.093,4.2968 36.093,12.9335 L 746.82,69 c -10.222,-7.4336 -23.738,-11.1133 -40.507,-11.1133 -16.418,0 -29.313,5.2656 -38.684,15.7969 -9.41,10.5742 -14.094,25.4062 -14.094,44.5354 0,18.082 5.149,32.797 15.371,44.183 10.262,11.383 23.004,17.075 38.184,17.075 15.219,0 26.949,-4.918 35.277,-14.754 8.324,-9.797 12.469,-23.465 12.469,-40.93 z m -19.051,15.762 c -0.082,10.726 -2.676,19.09 -7.746,25.094 -5.113,5.961 -12.199,8.945 -21.301,8.945 -8.75,0 -16.222,-3.137 -22.34,-9.41 -6.121,-6.274 -9.918,-14.485 -11.347,-24.629 h 62.734"
         style="fill:#fcfcfc;fill-opacity:1;fill-rule:nonzero;stroke:none"
         id="path46" />
      <path
         d="m 1066.76,60.5977 h -18.63 v 66.2543 c 0,24.668 -8.98,36.984 -26.99,36.984 -9.29,0 -17,-3.484 -23.077,-10.496 -6.118,-7.008 -9.141,-15.836 -9.141,-26.488 V 60.5977 H 970.297 V 176.77 h 18.625 v -19.286 h 0.465 c 8.754,14.676 21.453,21.993 38.103,21.993 12.7,0 22.42,-4.102 29.16,-12.313 6.74,-8.168 10.11,-20.059 10.11,-35.547 V 60.5977"
         style="fill:#fcfcfc;fill-opacity:1;fill-rule:nonzero;stroke:none"
         id="path48" />
      <path
         d="M 1193.16,176.77 1146.84,60.5977 H 1128.6 L 1084.57,176.77 h 20.41 l 29.51,-84.4184 c 2.21,-6.1993 3.56,-11.5821 4.1,-16.2266 h 0.43 c 0.77,5.8477 1.97,11.1133 3.64,15.8008 l 30.86,84.8442 h 19.64"
         style="fill:#fcfcfc;fill-opacity:1;fill-rule:nonzero;stroke:none"
         id="path50" />
      <path
         d="m 1222.63,206.277 c -3.29,0 -6.16,1.121 -8.49,3.407 -2.36,2.246 -3.52,5.113 -3.52,8.597 0,3.485 1.16,6.391 3.52,8.676 2.33,2.32 5.2,3.484 8.49,3.484 3.4,0 6.31,-1.164 8.71,-3.484 2.36,-2.285 3.56,-5.191 3.56,-8.676 0,-3.328 -1.2,-6.16 -3.56,-8.48 -2.4,-2.36 -5.31,-3.524 -8.71,-3.524 z m 9.09,-145.6793 H 1213.1 V 176.77 h 18.62 V 60.5977"
         style="fill:#fcfcfc;fill-opacity:1;fill-rule:nonzero;stroke:none"
         id="path52" />
      <path
         d="m 1329.97,157.949 c -3.26,2.477 -7.94,3.715 -14.06,3.715 -7.98,0 -14.6,-3.715 -19.95,-11.226 -5.3,-7.477 -7.97,-17.7 -7.97,-30.633 V 60.5977 h -18.63 V 176.77 h 18.63 v -23.93 h 0.46 c 2.64,8.168 6.67,14.519 12.12,19.125 5.47,4.57 11.54,6.855 18.28,6.855 4.85,0 8.52,-0.539 11.12,-1.586 v -19.285"
         style="fill:#fcfcfc;fill-opacity:1;fill-rule:nonzero;stroke:none"
         id="path54" />
      <path
         d="m 1398.7,57.8867 c -17.15,0 -30.86,5.418 -41.12,16.2617 -10.22,10.8438 -15.38,25.25 -15.38,43.1756 0,19.52 5.35,34.739 16,45.735 10.68,10.961 25.09,16.418 43.25,16.418 17.31,0 30.83,-5.301 40.55,-15.993 9.71,-10.644 14.56,-25.441 14.56,-44.339 0,-18.547 -5.23,-33.3755 -15.68,-44.5317 -10.5,-11.1524 -24.56,-16.7266 -42.18,-16.7266 z m 1.36,105.9493 c -11.93,0 -21.38,-4.066 -28.35,-12.199 -6.97,-8.133 -10.45,-19.324 -10.45,-33.649 0,-13.75 3.52,-24.5935 10.57,-32.531 7.05,-7.9375 16.46,-11.9257 28.23,-11.9257 12.04,0 21.3,3.9101 27.76,11.6914 6.47,7.7851 9.68,18.8593 9.68,33.2303 0,14.516 -3.21,25.707 -9.68,33.57 -6.46,7.899 -15.72,11.813 -27.76,11.813"
         style="fill:#fcfcfc;fill-opacity:1;fill-rule:nonzero;stroke:none"
         id="path56" />
      <path
         d="m 1582.76,60.5977 h -18.63 v 66.2543 c 0,24.668 -8.98,36.984 -26.99,36.984 -9.29,0 -17,-3.484 -23.08,-10.496 -6.11,-7.008 -9.14,-15.836 -9.14,-26.488 V 60.5977 H 1486.3 V 176.77 h 18.62 v -19.286 h 0.47 c 8.75,14.676 21.45,21.993 38.1,21.993 12.7,0 22.42,-4.102 29.16,-12.313 6.74,-8.168 10.11,-20.059 10.11,-35.547 V 60.5977"
         style="fill:#fcfcfc;fill-opacity:1;fill-rule:nonzero;stroke:none"
         id="path58" />
      <path
         d="m 1782.77,60.5977 h -18.59 v 66.7183 c 0,12.856 -2.01,22.153 -5.96,27.883 -3.99,5.77 -10.65,8.637 -20.02,8.637 -7.94,0 -14.72,-3.641 -20.25,-10.883 -5.58,-7.281 -8.37,-15.953 -8.37,-26.101 V 60.5977 h -18.59 v 68.9653 c 0,22.847 -8.83,34.273 -26.45,34.273 -8.16,0 -14.87,-3.41 -20.17,-10.262 -5.31,-6.855 -7.94,-15.761 -7.94,-26.722 V 60.5977 H 1617.8 V 176.77 h 18.63 v -18.395 h 0.46 c 8.22,14.098 20.26,21.102 36.06,21.102 7.94,0 14.87,-2.204 20.75,-6.622 5.93,-4.414 9.96,-10.218 12.16,-17.421 8.6,16.027 21.46,24.043 38.57,24.043 25.56,0 38.34,-15.758 38.34,-47.282 V 60.5977"
         style="fill:#fcfcfc;fill-opacity:1;fill-rule:nonzero;stroke:none"
         id="path60" />
      <path
         d="m 1911.29,114.035 h -82.01 c 0.31,-12.933 3.79,-22.9256 10.45,-29.9725 6.66,-7.0078 15.8,-10.5312 27.46,-10.5312 13.08,0 25.09,4.2968 36.09,12.9335 V 69 c -10.23,-7.4336 -23.74,-11.1133 -40.51,-11.1133 -16.42,0 -29.31,5.2656 -38.68,15.7969 -9.41,10.5742 -14.1,25.4062 -14.1,44.5354 0,18.082 5.15,32.797 15.37,44.183 10.27,11.383 23.01,17.075 38.19,17.075 15.22,0 26.95,-4.918 35.27,-14.754 8.33,-9.797 12.47,-23.465 12.47,-40.93 z m -19.05,15.762 c -0.08,10.726 -2.67,19.09 -7.74,25.094 -5.12,5.961 -12.2,8.945 -21.3,8.945 -8.75,0 -16.23,-3.137 -22.34,-9.41 -6.13,-6.274 -9.92,-14.485 -11.35,-24.629 h 62.73"
         style="fill:#fcfcfc;fill-opacity:1;fill-rule:nonzero;stroke:none"
         id="path62" />
      <path
         d="m 2035.91,60.5977 h -18.63 v 66.2543 c 0,24.668 -8.98,36.984 -26.99,36.984 -9.29,0 -17,-3.484 -23.08,-10.496 -6.12,-7.008 -9.14,-15.836 -9.14,-26.488 V 60.5977 h -18.62 V 176.77 h 18.62 v -19.286 h 0.47 c 8.75,14.676 21.45,21.993 38.1,21.993 12.7,0 22.42,-4.102 29.16,-12.313 6.74,-8.168 10.11,-20.059 10.11,-35.547 V 60.5977"
         style="fill:#fcfcfc;fill-opacity:1;fill-rule:nonzero;stroke:none"
         id="path64" />
      <path
         d="m 2124.86,61.7188 c -4.38,-2.4024 -10.18,-3.6016 -17.35,-3.6016 -20.37,0 -30.52,11.3476 -30.52,34.0391 v 68.7347 h -19.98 v 15.879 h 19.98 v 28.343 l 18.59,6.043 V 176.77 h 29.28 v -15.879 h -29.28 V 95.4102 c 0,-7.7852 1.32,-13.3204 3.99,-16.6524 2.63,-3.332 7.01,-4.9961 13.16,-4.9961 4.69,0 8.72,1.2813 12.13,3.875 V 61.7188"
         style="fill:#fcfcfc;fill-opacity:1;fill-rule:nonzero;stroke:none"
         id="path66" />
      <path
         d="m 2665.33,60.5977 h -18.58 v 66.7183 c 0,12.856 -2.02,22.153 -5.97,27.883 -3.99,5.77 -10.65,8.637 -20.02,8.637 -7.94,0 -14.71,-3.641 -20.25,-10.883 -5.58,-7.281 -8.37,-15.953 -8.37,-26.101 V 60.5977 h -18.58 v 68.9653 c 0,22.847 -8.83,34.273 -26.45,34.273 -8.17,0 -14.87,-3.41 -20.18,-10.262 -5.3,-6.855 -7.94,-15.761 -7.94,-26.722 V 60.5977 h -18.62 V 176.77 h 18.62 v -18.395 h 0.47 c 8.21,14.098 20.25,21.102 36.05,21.102 7.94,0 14.87,-2.204 20.76,-6.622 5.92,-4.414 9.95,-10.218 12.16,-17.421 8.59,16.027 21.45,24.043 38.57,24.043 25.55,0 38.33,-15.758 38.33,-47.282 V 60.5977"
         style="fill:#fcfcfc;fill-opacity:1;fill-rule:nonzero;stroke:none"
         id="path68" />
      <path
         d="m 2865.46,60.5977 h -18.59 v 66.7183 c 0,12.856 -2.01,22.153 -5.96,27.883 -3.99,5.77 -10.65,8.637 -20.02,8.637 -7.94,0 -14.72,-3.641 -20.25,-10.883 -5.58,-7.281 -8.37,-15.953 -8.37,-26.101 V 60.5977 h -18.59 v 68.9653 c 0,22.847 -8.82,34.273 -26.45,34.273 -8.16,0 -14.87,-3.41 -20.17,-10.262 -5.31,-6.855 -7.94,-15.761 -7.94,-26.722 V 60.5977 h -18.63 V 176.77 h 18.63 v -18.395 h 0.47 c 8.2,14.098 20.25,21.102 36.05,21.102 7.93,0 14.87,-2.204 20.75,-6.622 5.93,-4.414 9.96,-10.218 12.16,-17.421 8.6,16.027 21.46,24.043 38.57,24.043 25.56,0 38.34,-15.758 38.34,-47.282 V 60.5977"
         style="fill:#fcfcfc;fill-opacity:1;fill-rule:nonzero;stroke:none"
         id="path70" />
      <path
         d="m 2994.57,60.5977 h -18.59 v 18.3945 h -0.47 c -7.71,-14.0977 -19.67,-21.1055 -35.85,-21.1055 -27.7,0 -41.52,16.4571 -41.52,49.4493 v 69.434 h 18.47 v -66.493 c 0,-24.5075 9.41,-36.7457 28.16,-36.7457 9.05,0 16.53,3.332 22.42,10.0273 5.85,6.6992 8.79,15.4531 8.79,26.2964 v 66.915 h 18.59 V 60.5977"
         style="fill:#fcfcfc;fill-opacity:1;fill-rule:nonzero;stroke:none"
         id="path72" />
      <path
         d="m 3128.59,60.5977 h -18.63 v 66.2543 c 0,24.668 -8.98,36.984 -26.99,36.984 -9.29,0 -17,-3.484 -23.08,-10.496 -6.12,-7.008 -9.14,-15.836 -9.14,-26.488 V 60.5977 h -18.62 V 176.77 h 18.62 v -19.286 h 0.47 c 8.75,14.676 21.45,21.993 38.1,21.993 12.7,0 22.42,-4.102 29.16,-12.313 6.74,-8.168 10.11,-20.059 10.11,-35.547 V 60.5977"
         style="fill:#fcfcfc;fill-opacity:1;fill-rule:nonzero;stroke:none"
         id="path74" />
      <path
         d="m 3173.16,206.277 c -3.29,0 -6.16,1.121 -8.48,3.407 -2.36,2.246 -3.52,5.113 -3.52,8.597 0,3.485 1.16,6.391 3.52,8.676 2.32,2.32 5.19,3.484 8.48,3.484 3.41,0 6.32,-1.164 8.72,-3.484 2.36,-2.285 3.56,-5.191 3.56,-8.676 0,-3.328 -1.2,-6.16 -3.56,-8.48 -2.4,-2.36 -5.31,-3.524 -8.72,-3.524 z m 9.1,-145.6793 h -18.62 V 176.77 h 18.62 V 60.5977"
         style="fill:#fcfcfc;fill-opacity:1;fill-rule:nonzero;stroke:none"
         id="path76" />
      <path
         d="m 3299.09,65.9414 c -8.91,-5.3867 -19.52,-8.0547 -31.75,-8.0547 -16.58,0 -29.94,5.3828 -40.12,16.1446 -10.15,10.7656 -15.26,24.746 -15.26,41.9417 0,19.129 5.5,34.5 16.46,46.117 10.96,11.582 25.6,17.387 43.91,17.387 10.22,0 19.21,-1.856 26.99,-5.653 v -19.051 c -8.63,6.043 -17.85,9.063 -27.69,9.063 -11.84,0 -21.6,-4.258 -29.19,-12.781 -7.59,-8.481 -11.42,-19.672 -11.42,-33.496 0,-13.629 3.59,-24.3559 10.72,-32.2192 7.16,-7.8593 16.73,-11.8085 28.77,-11.8085 10.15,0 19.67,3.3671 28.58,10.1054 V 65.9414"
         style="fill:#fcfcfc;fill-opacity:1;fill-rule:nonzero;stroke:none"
         id="path78" />
      <path
         d="m 3410.39,60.5977 h -18.63 v 18.1601 h -0.43 c -8.09,-13.9414 -20.02,-20.8711 -35.74,-20.8711 -11.58,0 -20.64,3.0586 -27.18,9.1758 -6.55,6.1211 -9.8,14.2539 -9.8,24.3984 0,21.6841 12.78,34.3481 38.34,37.8711 l 34.81,4.879 c 0,19.75 -7.98,29.625 -23.93,29.625 -13.98,0 -26.6,-4.766 -37.88,-14.293 v 19.055 c 11.43,7.281 24.55,10.879 39.46,10.879 27.3,0 40.98,-14.442 40.98,-43.329 z m -18.63,58.7813 -28,-3.871 c -8.63,-1.199 -15.14,-3.332 -19.51,-6.43 -4.38,-3.058 -6.59,-8.48 -6.59,-16.2616 0,-5.6562 2.02,-10.3008 6.08,-13.9023 4.03,-3.6016 9.41,-5.3828 16.15,-5.3828 9.22,0 16.84,3.25 22.84,9.6796 6.05,6.4649 9.03,14.6797 9.03,24.5901 v 11.578"
         style="fill:#fcfcfc;fill-opacity:1;fill-rule:nonzero;stroke:none"
         id="path80" />
      <path
         d="m 3499.33,61.7188 c -4.37,-2.4024 -10.18,-3.6016 -17.35,-3.6016 -20.36,0 -30.51,11.3476 -30.51,34.0391 v 68.7347 h -19.98 v 15.879 h 19.98 v 28.343 l 18.59,6.043 V 176.77 h 29.27 v -15.879 h -29.27 V 95.4102 c 0,-7.7852 1.32,-13.3204 3.99,-16.6524 2.63,-3.332 7,-4.9961 13.16,-4.9961 4.69,0 8.72,1.2813 12.12,3.875 V 61.7188"
         style="fill:#fcfcfc;fill-opacity:1;fill-rule:nonzero;stroke:none"
         id="path82" />
      <path
         d="m 3533.68,206.277 c -3.29,0 -6.15,1.121 -8.48,3.407 -2.36,2.246 -3.52,5.113 -3.52,8.597 0,3.485 1.16,6.391 3.52,8.676 2.33,2.32 5.19,3.484 8.48,3.484 3.41,0 6.32,-1.164 8.72,-3.484 2.36,-2.285 3.56,-5.191 3.56,-8.676 0,-3.328 -1.2,-6.16 -3.56,-8.48 -2.4,-2.36 -5.31,-3.524 -8.72,-3.524 z m 9.1,-145.6793 h -18.62 V 176.77 h 18.62 V 60.5977"
         style="fill:#fcfcfc;fill-opacity:1;fill-rule:nonzero;stroke:none"
         id="path84" />
      <path
         d="m 3628.98,57.8867 c -17.15,0 -30.86,5.418 -41.12,16.2617 -10.22,10.8438 -15.38,25.25 -15.38,43.1756 0,19.52 5.35,34.739 16,45.735 10.68,10.961 25.09,16.418 43.25,16.418 17.31,0 30.82,-5.301 40.54,-15.993 9.73,-10.644 14.57,-25.441 14.57,-44.339 0,-18.547 -5.23,-33.3755 -15.69,-44.5317 -10.49,-11.1524 -24.55,-16.7266 -42.17,-16.7266 z m 1.36,105.9493 c -11.93,0 -21.38,-4.066 -28.35,-12.199 -6.97,-8.133 -10.45,-19.324 -10.45,-33.649 0,-13.75 3.52,-24.5935 10.57,-32.531 7.05,-7.9375 16.45,-11.9257 28.23,-11.9257 12.04,0 21.3,3.9101 27.76,11.6914 6.47,7.7851 9.68,18.8593 9.68,33.2303 0,14.516 -3.21,25.707 -9.68,33.57 -6.46,7.899 -15.72,11.813 -27.76,11.813"
         style="fill:#fcfcfc;fill-opacity:1;fill-rule:nonzero;stroke:none"
         id="path86" />
      <path
         d="m 3813.04,60.5977 h -18.63 v 66.2543 c 0,24.668 -8.98,36.984 -26.99,36.984 -9.29,0 -17,-3.484 -23.08,-10.496 -6.12,-7.008 -9.14,-15.836 -9.14,-26.488 V 60.5977 h -18.63 V 176.77 h 18.63 v -19.286 h 0.47 c 8.75,14.676 21.45,21.993 38.1,21.993 12.7,0 22.42,-4.102 29.16,-12.313 6.74,-8.168 10.11,-20.059 10.11,-35.547 V 60.5977"
         style="fill:#fcfcfc;fill-opacity:1;fill-rule:nonzero;stroke:none"
         id="path88" />
      <path
         d="m 4115.09,157.949 c -3.26,2.477 -7.94,3.715 -14.06,3.715 -7.98,0 -14.6,-3.715 -19.94,-11.226 -5.31,-7.477 -7.98,-17.7 -7.98,-30.633 V 60.5977 h -18.63 V 176.77 h 18.63 v -23.93 h 0.46 c 2.64,8.168 6.66,14.519 12.13,19.125 5.45,4.57 11.53,6.855 18.27,6.855 4.84,0 8.52,-0.539 11.12,-1.586 v -19.285"
         style="fill:#fcfcfc;fill-opacity:1;fill-rule:nonzero;stroke:none"
         id="path90" />
      <path
         d="m 4183.82,57.8867 c -17.16,0 -30.86,5.418 -41.12,16.2617 -10.23,10.8438 -15.38,25.25 -15.38,43.1756 0,19.52 5.35,34.739 16,45.735 10.68,10.961 25.09,16.418 43.25,16.418 17.31,0 30.82,-5.301 40.54,-15.993 9.73,-10.644 14.57,-25.441 14.57,-44.339 0,-18.547 -5.23,-33.3755 -15.69,-44.5317 -10.49,-11.1524 -24.55,-16.7266 -42.17,-16.7266 z m 1.36,105.9493 c -11.93,0 -21.38,-4.066 -28.35,-12.199 -6.97,-8.133 -10.45,-19.324 -10.45,-33.649 0,-13.75 3.52,-24.5935 10.57,-32.531 7.05,-7.9375 16.45,-11.9257 28.23,-11.9257 12.04,0 21.3,3.9101 27.76,11.6914 6.47,7.7851 9.68,18.8593 9.68,33.2303 0,14.516 -3.21,25.707 -9.68,33.57 -6.46,7.899 -15.72,11.813 -27.76,11.813"
         style="fill:#fcfcfc;fill-opacity:1;fill-rule:nonzero;stroke:none"
         id="path92" />
      <path
         d="m 4325.32,61.7188 c -4.37,-2.4024 -10.18,-3.6016 -17.35,-3.6016 -20.37,0 -30.51,11.3476 -30.51,34.0391 v 68.7347 h -19.99 v 15.879 h 19.99 v 28.343 l 18.58,6.043 V 176.77 h 29.28 v -15.879 h -29.28 V 95.4102 c 0,-7.7852 1.32,-13.3204 3.99,-16.6524 2.64,-3.332 7.01,-4.9961 13.17,-4.9961 4.68,0 8.71,1.2813 12.12,3.875 V 61.7188"
         style="fill:#fcfcfc;fill-opacity:1;fill-rule:nonzero;stroke:none"
         id="path94" />
      <path
         d="m 4398.7,57.8867 c -17.15,0 -30.86,5.418 -41.12,16.2617 -10.22,10.8438 -15.38,25.25 -15.38,43.1756 0,19.52 5.35,34.739 16,45.735 10.68,10.961 25.09,16.418 43.25,16.418 17.31,0 30.82,-5.301 40.55,-15.993 9.71,-10.644 14.55,-25.441 14.55,-44.339 0,-18.547 -5.22,-33.3755 -15.68,-44.5317 -10.49,-11.1524 -24.55,-16.7266 -42.17,-16.7266 z m 1.35,105.9493 c -11.92,0 -21.37,-4.066 -28.34,-12.199 -6.97,-8.133 -10.46,-19.324 -10.46,-33.649 0,-13.75 3.53,-24.5935 10.57,-32.531 7.06,-7.9375 16.47,-11.9257 28.23,-11.9257 12.05,0 21.31,3.9101 27.77,11.6914 6.47,7.7851 9.68,18.8593 9.68,33.2303 0,14.516 -3.21,25.707 -9.68,33.57 -6.46,7.899 -15.72,11.813 -27.77,11.813"
         style="fill:#fcfcfc;fill-opacity:1;fill-rule:nonzero;stroke:none"
         id="path96" />
      <path
         d="m 4565.49,65.9414 c -8.91,-5.3867 -19.52,-8.0547 -31.76,-8.0547 -16.57,0 -29.93,5.3828 -40.12,16.1446 -10.14,10.7656 -15.25,24.746 -15.25,41.9417 0,19.129 5.5,34.5 16.46,46.117 10.95,11.582 25.59,17.387 43.91,17.387 10.22,0 19.2,-1.856 26.99,-5.653 v -19.051 c -8.63,6.043 -17.85,9.063 -27.69,9.063 -11.85,0 -21.6,-4.258 -29.2,-12.781 -7.59,-8.481 -11.42,-19.672 -11.42,-33.496 0,-13.629 3.6,-24.3559 10.73,-32.2192 7.16,-7.8593 16.73,-11.8085 28.77,-11.8085 10.14,0 19.67,3.3671 28.58,10.1054 V 65.9414"
         style="fill:#fcfcfc;fill-opacity:1;fill-rule:nonzero;stroke:none"
         id="path98" />
      <path
         d="m 4642.16,57.8867 c -17.16,0 -30.86,5.418 -41.12,16.2617 -10.23,10.8438 -15.38,25.25 -15.38,43.1756 0,19.52 5.35,34.739 16,45.735 10.68,10.961 25.09,16.418 43.25,16.418 17.31,0 30.82,-5.301 40.54,-15.993 9.73,-10.644 14.57,-25.441 14.57,-44.339 0,-18.547 -5.23,-33.3755 -15.69,-44.5317 -10.49,-11.1524 -24.55,-16.7266 -42.17,-16.7266 z m 1.36,105.9493 c -11.93,0 -21.38,-4.066 -28.35,-12.199 -6.97,-8.133 -10.46,-19.324 -10.46,-33.649 0,-13.75 3.53,-24.5935 10.58,-32.531 7.05,-7.9375 16.45,-11.9257 28.23,-11.9257 12.04,0 21.3,3.9101 27.76,11.6914 6.47,7.7851 9.68,18.8593 9.68,33.2303 0,14.516 -3.21,25.707 -9.68,33.57 -6.46,7.899 -15.72,11.813 -27.76,11.813"
         style="fill:#fcfcfc;fill-opacity:1;fill-rule:nonzero;stroke:none"
         id="path100" />
      <path
         d="m 4748.38,60.5977 h -18.63 V 232.57 h 18.63 V 60.5977"
         style="fill:#fcfcfc;fill-opacity:1;fill-rule:nonzero;stroke:none"
         id="path102" />
    </g>
  </g>
</svg>
